<svg xmlns="http://www.w3.org/2000/svg" viewBox="0 0 615 54.4"><defs><style>.a{fill:#f93115;}</style></defs><path class="a" d="M364.5,15a13.956,13.956,0,0,0-8.8-3.4c-2.4,0-5.7,1.4-5.7,4.2,0,3,3.6,4.1,5.9,4.8l3.4,1c7.1,2.1,12.5,5.7,12.5,13.9,0,5.1-1.2,10.2-5.2,13.7-4,3.4-9.3,4.8-14.4,4.8a31.5,31.5,0,0,1-17.8-5.8L340,37.6c3.3,2.9,7.2,5.2,11.7,5.2,3.1,0,6.4-1.5,6.4-5.1,0-3.7-5.2-5-8-5.8-8.3-2.3-13.7-4.5-13.7-14.3,0-10.3,7.3-17,17.5-17a34.3,34.3,0,0,1,15.9,4.2Z"/><path class="a" d="M481.8,2V30.5c0,6.5-.3,13-5.3,17.9-4.2,4.2-10.9,5.7-16.8,5.7s-12.6-1.5-16.8-5.7c-5-4.9-5.3-11.4-5.3-17.9V2h13.2V28.7c0,6.6.5,13.8,8.9,13.8,8.5,0,9-7.2,9-13.8V2Z"/><path class="a" d="M515.3,33.8h-11l5.5-16.2h.1Zm3.6,10.1,3.3,8.8h14.1L517.2,2H502.8L483.3,52.7h14l3.5-8.8Z"/><path class="a" d="M553.6,12h1.3c4.3,0,9.1.8,9.1,6.3s-4.8,6.3-9.1,6.3h-1.3Zm15.6,19.2c5.6-2.1,8.6-7.5,8.6-13.6C577.8,6.8,570.2,2,560.2,2H540.5V52.7h13.2V33.2h1.9l11.2,19.5h15.9C582.6,52.7,571,33.9,569.2,31.2Z"/><path class="a" d="M599.3,13.1v8.5h14.9V32.8H599.3v8.8H615V52.8H586.1V2H615V13.2H599.3Z"/><path class="a" d="M377,27.1A26.95,26.95,0,1,0,404,.2,27.015,27.015,0,0,0,377,27.1Zm13.1,0A13.9,13.9,0,1,1,404,41,13.87,13.87,0,0,1,390.1,27.1Z"/><path class="a" d="M404.4,41c7.1,0,9,1.7,10,3.5,4.7,8.8,12.5,9.9,18.8,9.9l-.1-12.5c-5.6,0-6.6-1.2-7.7-3.2-4.8-9.1-14.3-10.2-21-10.2V41Z"/><path d="M78.5,0,57,46.9H39.5V2.1H33.2V52.6H61.1L66.9,40H90.1l5.8,12.7h6.8Zm-9,34.3,9-20.4,9,20.4Z"/><path d="M113.8,52.7h-6.3V7.9H94.6V2.1h32.1V7.9H113.8V52.7Z"/><path d="M138.3,7.9V22.1h19.5v5.7H138.3V52.6H132V2.1h26.4V7.9Z"/><path d="M13.8,2.1H0V52.6H6.3V31.4h7.5A14.7,14.7,0,0,0,28.5,16.8,14.789,14.789,0,0,0,13.8,2.1Zm0,23.9H6.3V7.6h7.5a9.2,9.2,0,0,1,0,18.4Z"/><path d="M253.3,52.7,240.7,30a14.648,14.648,0,0,0-6.4-27.8H220.5V52.7h6.3V31.4h8l11.8,21.3h6.7ZM226.7,7.6h7.5a9.2,9.2,0,0,1,0,18.4h-7.5Z"/><path d="M281,39.8,257.1.6V52.7h6.1V22.3L281,51.1h.1l17.8-28.8V52.7H305V.6Z"/><path d="M162.4,27.6A26.65,26.65,0,1,0,189.1.9,26.674,26.674,0,0,0,162.4,27.6Zm6.1,0A20.5,20.5,0,1,1,189,48.1,20.528,20.528,0,0,1,168.5,27.6Z"/></svg>